<svg width="146" height="33" viewBox="0 0 146 33" fill="none" xmlns="http://www.w3.org/2000/svg">
<mask id="mask0_89_39" style="mask-type:alpha" maskUnits="userSpaceOnUse" x="1" y="6" width="145" height="27">
<path d="M1.89631 29V7.18182H6.50923V16.8018H6.79688L14.6484 7.18182H20.1776L12.081 16.951L20.2734 29H14.755L8.77841 20.0298L6.50923 22.7997V29H1.89631ZM25.5927 29.1705C24.7101 29.1705 23.9469 28.983 23.3029 28.608C22.6628 28.2292 22.1684 27.7027 21.82 27.0284C21.4715 26.3504 21.2972 25.5644 21.2972 24.6705C21.2972 23.7689 21.4715 22.9811 21.82 22.3068C22.1684 21.6288 22.6628 21.1023 23.3029 20.7273C23.9469 20.3485 24.7101 20.1591 25.5927 20.1591C26.4753 20.1591 27.2366 20.3485 27.8768 20.7273C28.5207 21.1023 29.0169 21.6288 29.3654 22.3068C29.7139 22.9811 29.8881 23.7689 29.8881 24.6705C29.8881 25.5644 29.7139 26.3504 29.3654 27.0284C29.0169 27.7027 28.5207 28.2292 27.8768 28.608C27.2366 28.983 26.4753 29.1705 25.5927 29.1705ZM25.604 27.2955C26.0056 27.2955 26.3408 27.1818 26.6097 26.9545C26.8787 26.7235 27.0813 26.4091 27.2177 26.0114C27.3578 25.6136 27.4279 25.161 27.4279 24.6534C27.4279 24.1458 27.3578 23.6932 27.2177 23.2955C27.0813 22.8977 26.8787 22.5833 26.6097 22.3523C26.3408 22.1212 26.0056 22.0057 25.604 22.0057C25.1987 22.0057 24.8578 22.1212 24.5813 22.3523C24.3086 22.5833 24.1022 22.8977 23.962 23.2955C23.8256 23.6932 23.7575 24.1458 23.7575 24.6534C23.7575 25.161 23.8256 25.6136 23.962 26.0114C24.1022 26.4091 24.3086 26.7235 24.5813 26.9545C24.8578 27.1818 25.1987 27.2955 25.604 27.2955ZM34.6779 29.142C34.015 29.142 33.4147 28.9716 32.8768 28.6307C32.3427 28.286 31.9184 27.7803 31.604 27.1136C31.2934 26.4432 31.1381 25.6212 31.1381 24.6477C31.1381 23.6477 31.2991 22.8163 31.6211 22.1534C31.9431 21.4867 32.3711 20.9886 32.9052 20.6591C33.4431 20.3258 34.0321 20.1591 34.6722 20.1591C35.1609 20.1591 35.5681 20.2424 35.8938 20.4091C36.2234 20.572 36.4885 20.7765 36.6893 21.0227C36.8938 21.2652 37.0491 21.5038 37.1552 21.7386H37.229V17.3636H39.6438V29H37.2575V27.6023H37.1552C37.0415 27.8447 36.8806 28.0852 36.6722 28.3239C36.4677 28.5587 36.2006 28.7538 35.8711 28.9091C35.5453 29.0644 35.1476 29.142 34.6779 29.142ZM35.445 27.2159C35.8351 27.2159 36.1647 27.1098 36.4336 26.8977C36.7063 26.6818 36.9147 26.3807 37.0586 25.9943C37.2063 25.608 37.2802 25.1553 37.2802 24.6364C37.2802 24.1174 37.2082 23.6667 37.0643 23.2841C36.9203 22.9015 36.712 22.6061 36.4393 22.3977C36.1665 22.1894 35.8351 22.0852 35.445 22.0852C35.0472 22.0852 34.712 22.1932 34.4393 22.4091C34.1665 22.625 33.9601 22.9242 33.82 23.3068C33.6798 23.6894 33.6097 24.1326 33.6097 24.6364C33.6097 25.1439 33.6798 25.5928 33.82 25.983C33.9639 26.3693 34.1703 26.6723 34.4393 26.892C34.712 27.108 35.0472 27.2159 35.445 27.2159ZM45.6112 29.1705C44.7134 29.1705 43.9407 28.9886 43.293 28.625C42.649 28.2576 42.1528 27.7386 41.8043 27.0682C41.4558 26.3939 41.2816 25.5966 41.2816 24.6761C41.2816 23.7784 41.4558 22.9905 41.8043 22.3125C42.1528 21.6345 42.6433 21.1061 43.2759 20.7273C43.9123 20.3485 44.6585 20.1591 45.5146 20.1591C46.0903 20.1591 46.6263 20.2519 47.1225 20.4375C47.6225 20.6193 48.0581 20.8939 48.4293 21.2614C48.8043 21.6288 49.096 22.0909 49.3043 22.6477C49.5127 23.2008 49.6168 23.8485 49.6168 24.5909V25.2557H42.2475V23.7557H47.3384C47.3384 23.4072 47.2627 23.0985 47.1112 22.8295C46.9596 22.5606 46.7494 22.3504 46.4805 22.1989C46.2153 22.0436 45.9066 21.9659 45.5543 21.9659C45.1869 21.9659 44.8612 22.0511 44.5771 22.2216C44.2968 22.3883 44.0771 22.6136 43.918 22.8977C43.7589 23.178 43.6774 23.4905 43.6737 23.8352V25.2614C43.6737 25.6932 43.7532 26.0663 43.9123 26.3807C44.0752 26.6951 44.3043 26.9375 44.5998 27.108C44.8952 27.2784 45.2456 27.3636 45.6509 27.3636C45.9199 27.3636 46.1661 27.3258 46.3896 27.25C46.613 27.1742 46.8043 27.0606 46.9634 26.9091C47.1225 26.7576 47.2437 26.572 47.3271 26.3523L49.5657 26.5C49.4521 27.0379 49.2191 27.5076 48.8668 27.9091C48.5183 28.3068 48.0676 28.6174 47.5146 28.8409C46.9653 29.0606 46.3308 29.1705 45.6112 29.1705ZM51.1509 29V27.5568L55.4237 22.267V22.2045H51.2987V20.2727H58.3384V21.8466L54.3271 27.0057V27.0682H58.4862V29H51.1509ZM80.5181 14.8203H75.8519C75.7667 14.2166 75.5927 13.6804 75.3299 13.2116C75.0671 12.7358 74.7298 12.331 74.3178 11.9972C73.9059 11.6634 73.43 11.4077 72.8903 11.2301C72.3576 11.0526 71.7788 10.9638 71.1538 10.9638C70.0245 10.9638 69.0408 11.2443 68.2028 11.8054C67.3647 12.3594 66.7148 13.169 66.2532 14.2344C65.7915 15.2926 65.5607 16.5781 65.5607 18.0909C65.5607 19.6463 65.7915 20.9531 66.2532 22.0114C66.7219 23.0696 67.3754 23.8686 68.2134 24.4084C69.0515 24.9482 70.021 25.218 71.1218 25.218C71.7397 25.218 72.3114 25.1364 72.837 24.973C73.3697 24.8097 73.842 24.5717 74.2539 24.2592C74.6658 23.9396 75.0067 23.5526 75.2766 23.098C75.5536 22.6435 75.7454 22.125 75.8519 21.5426L80.5181 21.5639C80.3974 22.5653 80.0955 23.5312 79.6126 24.4616C79.1367 25.3849 78.494 26.2124 77.6843 26.9439C76.8817 27.6683 75.9229 28.2436 74.8079 28.6697C73.6999 29.0888 72.4464 29.2983 71.0472 29.2983C69.1012 29.2983 67.3612 28.858 65.8271 27.9773C64.3001 27.0966 63.0927 25.8217 62.2049 24.1527C61.3242 22.4837 60.8839 20.4631 60.8839 18.0909C60.8839 15.7116 61.3313 13.6875 62.2262 12.0185C63.1211 10.3494 64.3356 9.07812 65.8697 8.20455C67.4038 7.32386 69.1296 6.88352 71.0472 6.88352C72.3114 6.88352 73.4833 7.06108 74.5629 7.41619C75.6495 7.77131 76.6119 8.28977 77.4499 8.97159C78.288 9.64631 78.9698 10.4737 79.4954 11.4538C80.0281 12.4339 80.369 13.5561 80.5181 14.8203ZM86.8388 29.1705C85.9562 29.1705 85.1929 28.983 84.549 28.608C83.9089 28.2292 83.4145 27.7027 83.0661 27.0284C82.7176 26.3504 82.5433 25.5644 82.5433 24.6705C82.5433 23.7689 82.7176 22.9811 83.0661 22.3068C83.4145 21.6288 83.9089 21.1023 84.549 20.7273C85.1929 20.3485 85.9562 20.1591 86.8388 20.1591C87.7214 20.1591 88.4827 20.3485 89.1229 20.7273C89.7668 21.1023 90.263 21.6288 90.6115 22.3068C90.96 22.9811 91.1342 23.7689 91.1342 24.6705C91.1342 25.5644 90.96 26.3504 90.6115 27.0284C90.263 27.7027 89.7668 28.2292 89.1229 28.608C88.4827 28.983 87.7214 29.1705 86.8388 29.1705ZM86.8501 27.2955C87.2517 27.2955 87.5869 27.1818 87.8558 26.9545C88.1248 26.7235 88.3274 26.4091 88.4638 26.0114C88.6039 25.6136 88.674 25.161 88.674 24.6534C88.674 24.1458 88.6039 23.6932 88.4638 23.2955C88.3274 22.8977 88.1248 22.5833 87.8558 22.3523C87.5869 22.1212 87.2517 22.0057 86.8501 22.0057C86.4448 22.0057 86.1039 22.1212 85.8274 22.3523C85.5547 22.5833 85.3482 22.8977 85.2081 23.2955C85.0717 23.6932 85.0036 24.1458 85.0036 24.6534C85.0036 25.161 85.0717 25.6136 85.2081 26.0114C85.3482 26.4091 85.5547 26.7235 85.8274 26.9545C86.1039 27.1818 86.4448 27.2955 86.8501 27.2955ZM95.1286 23.9545V29H92.7081V20.2727H95.0149V21.8125H95.1172C95.3104 21.3049 95.6342 20.9034 96.0888 20.608C96.5433 20.3087 97.0945 20.1591 97.7422 20.1591C98.3482 20.1591 98.8767 20.2917 99.3274 20.5568C99.7782 20.822 100.129 21.2008 100.379 21.6932C100.629 22.1818 100.754 22.7652 100.754 23.4432V29H98.3331V23.875C98.3369 23.3409 98.2005 22.9242 97.924 22.625C97.6475 22.322 97.2668 22.1705 96.782 22.1705C96.4562 22.1705 96.1683 22.2405 95.9183 22.3807C95.6721 22.5208 95.4789 22.7254 95.3388 22.9943C95.2024 23.2595 95.1323 23.5795 95.1286 23.9545ZM106.604 29.1705C105.71 29.1705 104.942 28.9811 104.298 28.6023C103.657 28.2197 103.165 27.6894 102.82 27.0114C102.479 26.3333 102.309 25.553 102.309 24.6705C102.309 23.7765 102.481 22.9924 102.826 22.3182C103.174 21.6402 103.669 21.1117 104.309 20.733C104.949 20.3504 105.71 20.1591 106.593 20.1591C107.354 20.1591 108.021 20.2973 108.593 20.5739C109.165 20.8504 109.618 21.2386 109.951 21.7386C110.284 22.2386 110.468 22.8258 110.502 23.5H108.218C108.154 23.0644 107.983 22.714 107.707 22.4489C107.434 22.1799 107.076 22.0455 106.633 22.0455C106.258 22.0455 105.93 22.1477 105.65 22.3523C105.373 22.553 105.157 22.8466 105.002 23.233C104.847 23.6193 104.769 24.0871 104.769 24.6364C104.769 25.1932 104.845 25.6667 104.996 26.0568C105.152 26.447 105.37 26.7443 105.65 26.9489C105.93 27.1534 106.258 27.2557 106.633 27.2557C106.909 27.2557 107.157 27.1989 107.377 27.0852C107.601 26.9716 107.784 26.8068 107.928 26.5909C108.076 26.3712 108.173 26.108 108.218 25.8011H110.502C110.464 26.4678 110.282 27.0549 109.957 27.5625C109.635 28.0663 109.19 28.4602 108.621 28.7443C108.053 29.0284 107.381 29.1705 106.604 29.1705ZM116.029 29.1705C115.131 29.1705 114.359 28.9886 113.711 28.625C113.067 28.2576 112.571 27.7386 112.222 27.0682C111.874 26.3939 111.7 25.5966 111.7 24.6761C111.7 23.7784 111.874 22.9905 112.222 22.3125C112.571 21.6345 113.061 21.1061 113.694 20.7273C114.33 20.3485 115.076 20.1591 115.933 20.1591C116.508 20.1591 117.044 20.2519 117.54 20.4375C118.04 20.6193 118.476 20.8939 118.847 21.2614C119.222 21.6288 119.514 22.0909 119.722 22.6477C119.931 23.2008 120.035 23.8485 120.035 24.5909V25.2557H112.665V23.7557H117.756C117.756 23.4072 117.681 23.0985 117.529 22.8295C117.378 22.5606 117.167 22.3504 116.898 22.1989C116.633 22.0436 116.325 21.9659 115.972 21.9659C115.605 21.9659 115.279 22.0511 114.995 22.2216C114.715 22.3883 114.495 22.6136 114.336 22.8977C114.177 23.178 114.095 23.4905 114.092 23.8352V25.2614C114.092 25.6932 114.171 26.0663 114.33 26.3807C114.493 26.6951 114.722 26.9375 115.018 27.108C115.313 27.2784 115.664 27.3636 116.069 27.3636C116.338 27.3636 116.584 27.3258 116.808 27.25C117.031 27.1742 117.222 27.0606 117.381 26.9091C117.54 26.7576 117.662 26.572 117.745 26.3523L119.984 26.5C119.87 27.0379 119.637 27.5076 119.285 27.9091C118.936 28.3068 118.486 28.6174 117.933 28.8409C117.383 29.0606 116.749 29.1705 116.029 29.1705ZM121.614 32.2727V20.2727H124.001V21.7386H124.109C124.215 21.5038 124.368 21.2652 124.569 21.0227C124.773 20.7765 125.039 20.572 125.364 20.4091C125.694 20.2424 126.103 20.1591 126.592 20.1591C127.228 20.1591 127.815 20.3258 128.353 20.6591C128.891 20.9886 129.321 21.4867 129.643 22.1534C129.965 22.8163 130.126 23.6477 130.126 24.6477C130.126 25.6212 129.969 26.4432 129.654 27.1136C129.344 27.7803 128.919 28.286 128.381 28.6307C127.847 28.9716 127.249 29.142 126.586 29.142C126.116 29.142 125.717 29.0644 125.387 28.9091C125.061 28.7538 124.794 28.5587 124.586 28.3239C124.378 28.0852 124.219 27.8447 124.109 27.6023H124.035V32.2727H121.614ZM123.984 24.6364C123.984 25.1553 124.056 25.608 124.2 25.9943C124.344 26.3807 124.552 26.6818 124.825 26.8977C125.097 27.1098 125.429 27.2159 125.819 27.2159C126.213 27.2159 126.546 27.108 126.819 26.892C127.092 26.6723 127.298 26.3693 127.438 25.983C127.582 25.5928 127.654 25.1439 127.654 24.6364C127.654 24.1326 127.584 23.6894 127.444 23.3068C127.304 22.9242 127.097 22.625 126.825 22.4091C126.552 22.1932 126.217 22.0852 125.819 22.0852C125.425 22.0852 125.092 22.1894 124.819 22.3977C124.55 22.6061 124.344 22.9015 124.2 23.2841C124.056 23.6667 123.984 24.1174 123.984 24.6364ZM136.381 20.2727V22.0909H131.126V20.2727H136.381ZM132.319 18.1818H134.739V26.3182C134.739 26.5417 134.773 26.7159 134.842 26.8409C134.91 26.9621 135.004 27.0473 135.126 27.0966C135.251 27.1458 135.395 27.1705 135.558 27.1705C135.671 27.1705 135.785 27.161 135.898 27.142C136.012 27.1193 136.099 27.1023 136.16 27.0909L136.54 28.892C136.419 28.9299 136.249 28.9735 136.029 29.0227C135.809 29.0758 135.542 29.108 135.228 29.1193C134.645 29.142 134.133 29.0644 133.694 28.8864C133.258 28.7083 132.919 28.4318 132.677 28.0568C132.434 27.6818 132.315 27.2083 132.319 26.6364V18.1818ZM145.11 22.7614L142.894 22.8977C142.856 22.7083 142.775 22.5379 142.65 22.3864C142.525 22.2311 142.36 22.108 142.156 22.017C141.955 21.9223 141.714 21.875 141.434 21.875C141.059 21.875 140.743 21.9545 140.485 22.1136C140.228 22.2689 140.099 22.4773 140.099 22.7386C140.099 22.947 140.182 23.1231 140.349 23.267C140.515 23.411 140.801 23.5265 141.207 23.6136L142.786 23.9318C143.635 24.1061 144.267 24.3864 144.684 24.7727C145.101 25.1591 145.309 25.6667 145.309 26.2955C145.309 26.8674 145.14 27.3693 144.803 27.8011C144.47 28.233 144.012 28.5701 143.428 28.8125C142.849 29.0511 142.18 29.1705 141.423 29.1705C140.267 29.1705 139.347 28.9299 138.661 28.4489C137.979 27.964 137.58 27.3049 137.462 26.4716L139.843 26.3466C139.915 26.6989 140.089 26.9678 140.366 27.1534C140.642 27.3352 140.996 27.4261 141.428 27.4261C141.853 27.4261 142.193 27.3447 142.451 27.1818C142.712 27.0152 142.845 26.8011 142.849 26.5398C142.845 26.3201 142.752 26.1402 142.57 26C142.388 25.8561 142.108 25.7462 141.729 25.6705L140.218 25.3693C139.366 25.1989 138.731 24.9034 138.315 24.483C137.902 24.0625 137.695 23.5265 137.695 22.875C137.695 22.3144 137.847 21.8314 138.15 21.4261C138.457 21.0208 138.887 20.7083 139.44 20.4886C139.996 20.2689 140.648 20.1591 141.394 20.1591C142.496 20.1591 143.364 20.392 143.996 20.858C144.633 21.3239 145.004 21.9583 145.11 22.7614Z" fill="#3E3E3E"/>
</mask>
<g mask="url(#mask0_89_39)">
<rect x="-12" y="5" width="164" height="38" fill="url(#paint0_linear_89_39)"/>
</g>
<defs>
<linearGradient id="paint0_linear_89_39" x1="70" y1="5" x2="70" y2="43" gradientUnits="userSpaceOnUse">
<stop stop-color="#32C36C"/>
<stop offset="0.947917"/>
</linearGradient>
</defs>
</svg>
