<svg width="71" height="70" viewBox="0 0 71 70" fill="none" xmlns="http://www.w3.org/2000/svg">
<path d="M64.9919 18.865L43.1169 6.83374C42.7939 6.65604 42.4312 6.56287 42.0625 6.56287C41.6938 6.56287 41.3311 6.65604 41.0081 6.83374L19.1331 18.865C18.7902 19.0538 18.5041 19.3313 18.305 19.6683C18.1058 20.0054 18.0007 20.3897 18.0007 20.7812C18.0007 21.1728 18.1058 21.5571 18.305 21.8942C18.5041 22.2312 18.7902 22.5087 19.1331 22.6975L39.875 34.1053V57.5531L33.2338 53.9L31.125 57.7303L41.0081 63.1662C41.331 63.3443 41.6938 63.4377 42.0625 63.4377C42.4312 63.4377 42.794 63.3443 43.1169 63.1662L64.9919 51.135C65.335 50.9462 65.6211 50.6689 65.8204 50.3318C66.0198 49.9947 66.1249 49.6103 66.125 49.2187V20.7812C66.1249 20.3897 66.0198 20.0053 65.8204 19.6682C65.6211 19.3311 65.335 19.0537 64.9919 18.865ZM42.0625 11.2481L59.3984 20.7812L42.0625 30.3144L24.7266 20.7812L42.0625 11.2481ZM61.75 47.9259L44.25 57.5509V34.1031L61.75 24.4781V47.9259Z" fill="#4ECB71"/>
<path d="M22.375 35H4.875V30.625H22.375V35ZM26.75 52.5H9.25V48.125H26.75V52.5ZM31.125 43.75H13.625V39.375H31.125V43.75Z" fill="#4ECB71"/>
</svg>
