<svg width="40" height="40" viewBox="0 0 40 40" fill="none" xmlns="http://www.w3.org/2000/svg">
<path d="M20 2.5C24.6413 2.5 29.0925 4.34374 32.3744 7.62563C35.6563 10.9075 37.5 15.3587 37.5 20C37.5 24.6413 35.6563 29.0925 32.3744 32.3744C29.0925 35.6563 24.6413 37.5 20 37.5C15.3587 37.5 10.9075 35.6563 7.62563 32.3744C4.34374 29.0925 2.5 24.6413 2.5 20C2.5 15.3587 4.34374 10.9075 7.62563 7.62563C10.9075 4.34374 15.3587 2.5 20 2.5V2.5ZM20 17.8775L15.935 13.8125C15.6535 13.531 15.2718 13.3729 14.8738 13.3729C14.4757 13.3729 14.094 13.531 13.8125 13.8125C13.531 14.094 13.3729 14.4757 13.3729 14.8738C13.3729 15.2718 13.531 15.6535 13.8125 15.935L17.8775 20L13.8125 24.065C13.6731 24.2044 13.5626 24.3698 13.4872 24.5519C13.4117 24.734 13.3729 24.9292 13.3729 25.1262C13.3729 25.3233 13.4117 25.5185 13.4872 25.7006C13.5626 25.8827 13.6731 26.0481 13.8125 26.1875C13.9519 26.3269 14.1173 26.4374 14.2994 26.5128C14.4815 26.5883 14.6767 26.6271 14.8738 26.6271C15.0708 26.6271 15.266 26.5883 15.4481 26.5128C15.6302 26.4374 15.7956 26.3269 15.935 26.1875L20 22.1225L24.065 26.1875C24.2044 26.3269 24.3698 26.4374 24.5519 26.5128C24.734 26.5883 24.9292 26.6271 25.1262 26.6271C25.3233 26.6271 25.5185 26.5883 25.7006 26.5128C25.8827 26.4374 26.0481 26.3269 26.1875 26.1875C26.3269 26.0481 26.4374 25.8827 26.5128 25.7006C26.5883 25.5185 26.6271 25.3233 26.6271 25.1262C26.6271 24.9292 26.5883 24.734 26.5128 24.5519C26.4374 24.3698 26.3269 24.2044 26.1875 24.065L22.1225 20L26.1875 15.935C26.3269 15.7956 26.4374 15.6302 26.5128 15.4481C26.5883 15.266 26.6271 15.0708 26.6271 14.8738C26.6271 14.6767 26.5883 14.4815 26.5128 14.2994C26.4374 14.1173 26.3269 13.9519 26.1875 13.8125C26.0481 13.6731 25.8827 13.5626 25.7006 13.4872C25.5185 13.4117 25.3233 13.3729 25.1262 13.3729C24.9292 13.3729 24.734 13.4117 24.5519 13.4872C24.3698 13.5626 24.2044 13.6731 24.065 13.8125L20 17.8775Z" fill="#4ECB71"/>
</svg>
