<svg width="246" height="324" viewBox="0 0 246 324" fill="none" xmlns="http://www.w3.org/2000/svg">
<path d="M37.1296 192.371L132.229 49.171L178.533 -21.0404C179.772 -22.9197 180.796 -24.9326 181.585 -27.0409L198.037 -70.9973C204.576 -88.4694 225.307 -95.7995 241.375 -86.321L425.511 22.2965C438.7 30.0767 443.913 46.5419 437.605 60.4952L322.469 315.147C318.254 324.47 305.774 326.241 299.131 318.459L268.254 282.289C265.751 279.357 261.016 281.894 262.071 285.602C262.723 287.895 261.002 290.175 258.618 290.175L210.572 290.175L142.5 290.175L113 290.175L45.9731 290.175C40.2003 290.175 34.55 288.509 29.7002 285.378L13.8676 275.155C-0.956451 265.584 -4.35828 245.348 6.52131 231.455L37.1296 192.371Z" fill="#32C36C"/>
</svg>
