<svg width="70" height="70" viewBox="0 0 70 70" fill="none" xmlns="http://www.w3.org/2000/svg">
<path d="M33.3083 44.2458L50.3125 61.25C51.7708 62.6617 53.7256 63.4437 55.7552 63.4272C57.7849 63.4107 59.7267 62.5971 61.1619 61.1619C62.5971 59.7267 63.4107 57.7849 63.4272 55.7552C63.4437 53.7256 62.6617 51.7708 61.25 50.3125L44.1087 33.1713M33.3083 44.2458L40.5883 35.4083C41.5129 34.2883 42.7467 33.5825 44.1117 33.1742M33.3083 44.2458L19.7312 60.7338C19.0732 61.5359 18.2545 62.1913 17.3279 62.6579C16.4013 63.1245 15.3872 63.3919 14.351 63.4429C13.3147 63.4939 12.2793 63.3274 11.3113 62.954C10.3433 62.5807 9.46425 62.0088 8.73064 61.2752C7.99703 60.5416 7.42515 59.6625 7.05181 58.6945C6.67847 57.7265 6.51194 56.6911 6.56294 55.6549C6.61394 54.6186 6.88134 53.6046 7.34794 52.6779C7.81453 51.7513 8.46997 50.9326 9.27207 50.2746L29.2133 33.8538M44.1117 33.1742C45.7158 32.6958 47.5037 32.6258 49.1954 32.7658C51.4757 32.9616 53.7676 32.5578 55.8437 31.5943C57.9197 30.6307 59.7077 29.1411 61.0302 27.2732C62.3528 25.4053 63.1638 23.224 63.383 20.9457C63.6022 18.6675 63.2218 16.3716 62.2796 14.2858L52.7246 23.8438C51.126 23.4741 49.6633 22.663 48.5031 21.5028C47.3428 20.3425 46.5317 18.8799 46.1621 17.2813L55.7171 7.72625C53.6313 6.78406 51.3354 6.40367 49.0572 6.62283C46.779 6.84198 44.5977 7.65307 42.7297 8.9756C40.8618 10.2981 39.3722 12.0861 38.4087 14.1622C37.4452 16.2382 37.0413 18.5301 37.2371 20.8104C37.5025 23.9488 37.03 27.4138 34.6004 29.4146L34.3029 29.6625M29.2133 33.8538L17.2346 21.875H13.125L6.56249 10.9375L10.9375 6.5625L21.875 13.125V17.2346L34.3 29.6596M29.2104 33.8508L34.3 29.6596M53.5937 53.5938L45.9375 45.9375M14.1954 55.7813H14.2187V55.8046H14.1954V55.7813Z" stroke="#4ECB71" stroke-width="2" stroke-linecap="round" stroke-linejoin="round"/>
</svg>
