<svg width="33" height="33" viewBox="0 0 33 33" fill="none" xmlns="http://www.w3.org/2000/svg">
<path d="M16.5 16.5C17.2333 16.5 17.8613 16.2386 18.384 15.716C18.9058 15.1942 19.1667 14.5666 19.1667 13.8333C19.1667 13.1 18.9058 12.472 18.384 11.9493C17.8613 11.4275 17.2333 11.1666 16.5 11.1666C15.7667 11.1666 15.1391 11.4275 14.6173 11.9493C14.0947 12.472 13.8333 13.1 13.8333 13.8333C13.8333 14.5666 14.0947 15.1942 14.6173 15.716C15.1391 16.2386 15.7667 16.5 16.5 16.5ZM16.5 26.3C19.2111 23.8111 21.2222 21.5497 22.5333 19.516C23.8444 17.4831 24.5 15.6777 24.5 14.1C24.5 11.6777 23.7276 9.69418 22.1827 8.14929C20.6387 6.60529 18.7444 5.83329 16.5 5.83329C14.2556 5.83329 12.3609 6.60529 10.816 8.14929C9.272 9.69418 8.49999 11.6777 8.49999 14.1C8.49999 15.6777 9.15555 17.4831 10.4667 19.516C11.7778 21.5497 13.7889 23.8111 16.5 26.3ZM16.5 29.8333C12.9222 26.7888 10.2502 23.9608 8.48399 21.3493C6.71688 18.7386 5.83333 16.3222 5.83333 14.1C5.83333 10.7666 6.90577 8.11107 9.05066 6.13329C11.1947 4.15551 13.6778 3.16663 16.5 3.16663C19.3222 3.16663 21.8053 4.15551 23.9493 6.13329C26.0942 8.11107 27.1667 10.7666 27.1667 14.1C27.1667 16.3222 26.2836 18.7386 24.5173 21.3493C22.7502 23.9608 20.0778 26.7888 16.5 29.8333Z" fill="#4ECB71"/>
</svg>
