<svg width="31" height="30" viewBox="0 0 31 30" fill="none" xmlns="http://www.w3.org/2000/svg">
<path d="M15.5 9.375C14.3875 9.375 13.2999 9.7049 12.3749 10.323C11.4499 10.9411 10.7289 11.8196 10.3032 12.8474C9.87744 13.8752 9.76604 15.0062 9.98308 16.0974C10.2001 17.1885 10.7359 18.1908 11.5225 18.9775C12.3092 19.7641 13.3115 20.2999 14.4026 20.5169C15.4938 20.734 16.6248 20.6226 17.6526 20.1968C18.6804 19.7711 19.5589 19.0501 20.177 18.1251C20.7951 17.2001 21.125 16.1125 21.125 15C21.125 13.5082 20.5324 12.0774 19.4775 11.0225C18.4226 9.96763 16.9918 9.375 15.5 9.375ZM15.5 18.75C14.7583 18.75 14.0333 18.5301 13.4166 18.118C12.7999 17.706 12.3193 17.1203 12.0355 16.4351C11.7516 15.7498 11.6774 14.9958 11.8221 14.2684C11.9667 13.541 12.3239 12.8728 12.8483 12.3483C13.3728 11.8239 14.041 11.4667 14.7684 11.3221C15.4958 11.1774 16.2498 11.2516 16.9351 11.5355C17.6203 11.8193 18.206 12.2999 18.618 12.9166C19.0301 13.5333 19.25 14.2583 19.25 15C19.2469 15.9936 18.8508 16.9456 18.1482 17.6482C17.4456 18.3508 16.4936 18.7469 15.5 18.75ZM20.6562 3.28125H10.3438C8.60327 3.28125 6.93407 3.97265 5.70336 5.20336C4.47265 6.43407 3.78125 8.10327 3.78125 9.84375V20.1562C3.78125 21.8967 4.47265 23.5659 5.70336 24.7966C6.93407 26.0273 8.60327 26.7188 10.3438 26.7188H20.6562C22.3967 26.7188 24.0659 26.0273 25.2966 24.7966C26.5273 23.5659 27.2188 21.8967 27.2188 20.1562V9.84375C27.2188 8.10327 26.5273 6.43407 25.2966 5.20336C24.0659 3.97265 22.3967 3.28125 20.6562 3.28125ZM25.3438 20.1562C25.3438 20.7718 25.2225 21.3814 24.9869 21.9501C24.7514 22.5188 24.4061 23.0355 23.9708 23.4708C23.5355 23.9061 23.0188 24.2514 22.4501 24.4869C21.8814 24.7225 21.2718 24.8438 20.6562 24.8438H10.3438C9.72818 24.8438 9.11864 24.7225 8.54992 24.4869C7.98121 24.2514 7.46446 23.9061 7.02919 23.4708C6.59391 23.0355 6.24863 22.5188 6.01306 21.9501C5.7775 21.3814 5.65625 20.7718 5.65625 20.1562V9.84375C5.65625 8.60055 6.15011 7.40826 7.02919 6.52919C7.90826 5.65011 9.10055 5.15625 10.3438 5.15625H20.6562C21.2718 5.15625 21.8814 5.2775 22.4501 5.51306C23.0188 5.74863 23.5355 6.09391 23.9708 6.52919C24.4061 6.96446 24.7514 7.48121 24.9869 8.04992C25.2225 8.61864 25.3438 9.22818 25.3438 9.84375V20.1562ZM23 8.90625C23 9.18438 22.9175 9.45626 22.763 9.68752C22.6085 9.91878 22.3889 10.099 22.1319 10.2055C21.8749 10.3119 21.5922 10.3397 21.3194 10.2855C21.0466 10.2312 20.796 10.0973 20.5994 9.90062C20.4027 9.70395 20.2688 9.45338 20.2145 9.1806C20.1603 8.90781 20.1881 8.62506 20.2945 8.3681C20.401 8.11114 20.5812 7.89152 20.8125 7.737C21.0437 7.58247 21.3156 7.5 21.5938 7.5C21.9667 7.5 22.3244 7.64816 22.5881 7.91188C22.8518 8.1756 23 8.53329 23 8.90625Z" fill="#4ECB71"/>
</svg>
